<svg width="52" height="52" viewBox="0 0 52 52" fill="none" xmlns="http://www.w3.org/2000/svg">
<path d="M51.2383 0H0.761719C0.341047 0 0 0.341047 0 0.761719V51.2383C0 51.659 0.341047 52 0.761719 52H51.2383C51.659 52 52 51.659 52 51.2383V0.761719C52 0.341047 51.659 0 51.2383 0ZM50.4766 50.4766H1.52344V1.52344H50.4766V50.4766Z" fill="#3035C4"/>
<path d="M48.1914 3.04688H3.80859C3.38792 3.04688 3.04688 3.38792 3.04688 3.80859V8.37891C3.04688 8.79958 3.38792 9.14062 3.80859 9.14062C4.22927 9.14062 4.57031 8.79958 4.57031 8.37891V4.57031H47.4297V47.4297H4.57031V11.4258C4.57031 11.0051 4.22927 10.6641 3.80859 10.6641C3.38792 10.6641 3.04688 11.0051 3.04688 11.4258V48.1914C3.04688 48.6121 3.38792 48.9531 3.80859 48.9531H48.1914C48.6121 48.9531 48.9531 48.6121 48.9531 48.1914V3.80859C48.9531 3.38792 48.6121 3.04688 48.1914 3.04688Z" fill="#3035C4"/>
<path d="M31.0273 34.9375H25.8602L32.739 23.2641C33.4464 22.064 33.8203 20.6921 33.8203 19.2969C33.8203 14.9847 30.3121 11.4766 26 11.4766C21.6879 11.4766 18.1797 14.9847 18.1797 19.2969C18.1797 20.837 19.4326 22.0898 20.9727 22.0898C22.5127 22.0898 23.7656 20.837 23.7656 19.2969C23.7656 18.0648 24.7679 17.0625 26 17.0625C27.2321 17.0625 28.2344 18.0648 28.2344 19.2969C28.2344 19.6952 28.1279 20.0862 27.9266 20.4279L18.5664 36.3126C18.0588 37.1739 18.0517 38.2482 18.5477 39.1162C19.0437 39.9842 19.9729 40.5234 20.9727 40.5234H31.0273C32.5674 40.5234 33.8203 39.2706 33.8203 37.7305C33.8203 36.1904 32.5674 34.9375 31.0273 34.9375ZM31.0273 39.0001H20.9727C20.5183 39.0001 20.0959 38.7549 19.8704 38.3605C19.6449 37.9659 19.6482 37.4777 19.8788 37.0862L29.239 21.2016C29.5785 20.6256 29.7578 19.9671 29.7578 19.2969C29.7578 17.2248 28.0721 15.5391 26 15.5391C23.9279 15.5391 22.2422 17.2248 22.2422 19.2969C22.2422 19.9969 21.6727 20.5664 20.9727 20.5664C20.2726 20.5664 19.7031 19.9969 19.7031 19.2969C19.7031 15.8248 22.5279 13 26 13C29.4721 13 32.2969 15.8248 32.2969 19.2969C32.2969 20.4203 31.9959 21.5246 31.4265 22.4906L23.871 35.3126C23.7322 35.5481 23.7303 35.8399 23.866 36.0772C24.0017 36.3146 24.2539 36.461 24.5273 36.461H31.0273C31.7274 36.461 32.2969 37.0305 32.2969 37.7306C32.2969 38.4306 31.7274 39.0001 31.0273 39.0001Z" fill="#E6514A"/>
</svg>
