<svg width="52" height="52" viewBox="0 0 52 52" fill="none" xmlns="http://www.w3.org/2000/svg">
<path d="M51.2383 0H0.761719C0.340945 0 0 0.341047 0 0.761719V51.2383C0 51.659 0.340945 52 0.761719 52H51.2383C51.6591 52 52 51.659 52 51.2383V0.761719C52 0.341047 51.6591 0 51.2383 0ZM50.4766 50.4766H1.52344V1.52344H50.4766V50.4766Z" fill="#3035C4"/>
<path d="M48.1914 3.04688H3.80859C3.38782 3.04688 3.04688 3.38792 3.04688 3.80859V8.37891C3.04688 8.79958 3.38782 9.14062 3.80859 9.14062C4.22937 9.14062 4.57031 8.79958 4.57031 8.37891V4.57031H47.4297V47.4297H4.57031V11.4258C4.57031 11.0051 4.22937 10.6641 3.80859 10.6641C3.38782 10.6641 3.04688 11.0051 3.04688 11.4258V48.1914C3.04688 48.6121 3.38782 48.9531 3.80859 48.9531H48.1914C48.6122 48.9531 48.9531 48.6121 48.9531 48.1914V3.80859C48.9531 3.38792 48.6122 3.04688 48.1914 3.04688Z" fill="#3035C4"/>
<path d="M27.4882 22.5169C27.1407 22.4384 26.7857 22.611 26.6325 22.9324L23.5019 29.5066C23.3896 29.7426 23.4061 30.0198 23.5456 30.2408C23.6852 30.4618 23.9284 30.5959 24.1897 30.5959H27.3203C27.7411 30.5959 28.082 30.2548 28.082 29.8341V23.2599C28.082 22.9038 27.8354 22.5954 27.4882 22.5169ZM26.5586 29.0724H25.3961L26.5586 26.6312V29.0724Z" fill="#E6514A"/>
<path d="M32.1446 29.304V14.2697C32.1445 12.9554 31.2491 11.8351 29.9672 11.5454C29.765 11.4997 29.5577 11.4766 29.351 11.4766C28.2803 11.4766 27.2907 12.1016 26.83 13.069L18.4511 30.6647C18.0366 31.5351 18.0965 32.5414 18.6111 33.3565C19.1257 34.1716 20.0087 34.6583 20.9727 34.6583H26.5587V37.7306C26.5587 39.2707 27.8117 40.5235 29.3517 40.5235C30.8916 40.5235 32.1446 39.2707 32.1446 37.7306V34.4266C33.1449 33.9923 33.8204 32.9989 33.8204 31.8653C33.8204 30.7318 33.1449 29.7384 32.1446 29.304ZM31.2504 33.1156C30.8864 33.1798 30.6211 33.4961 30.6211 33.8657V37.7307C30.6211 38.4307 30.0516 39.0002 29.3516 39.0002C28.6515 39.0002 28.082 38.4307 28.082 37.7307V33.8967C28.082 33.476 27.7411 33.135 27.3203 33.135H20.9726C20.5345 33.135 20.1331 32.9138 19.8992 32.5433C19.6652 32.1728 19.6381 31.7152 19.8264 31.3196L28.2053 13.7239C28.4148 13.2841 28.8645 13 29.3509 13C29.4448 13 29.5391 13.0106 29.6314 13.0314C30.214 13.163 30.6211 13.6723 30.6211 14.2697V29.8652C30.6211 30.2347 30.8864 30.551 31.2504 30.6153C31.8568 30.7224 32.2969 31.248 32.2969 31.8654C32.2969 32.4828 31.8568 33.0085 31.2504 33.1156Z" fill="#E6514A"/>
</svg>
