<svg width="52" height="52" viewBox="0 0 52 52" fill="none" xmlns="http://www.w3.org/2000/svg">
<path d="M51.2383 0H0.761719C0.340945 0 0 0.341047 0 0.761719V51.2383C0 51.659 0.340945 52 0.761719 52H51.2383C51.6591 52 52 51.659 52 51.2383V0.761719C52 0.341047 51.6591 0 51.2383 0ZM50.4766 50.4766H1.52344V1.52344H50.4766V50.4766Z" fill="#3035C4"/>
<path d="M48.1914 3.04688H3.80859C3.38782 3.04688 3.04688 3.38792 3.04688 3.80859V8.37891C3.04688 8.79958 3.38782 9.14062 3.80859 9.14062C4.22937 9.14062 4.57031 8.79958 4.57031 8.37891V4.57031H47.4297V47.4297H4.57031V11.4258C4.57031 11.0051 4.22937 10.6641 3.80859 10.6641C3.38782 10.6641 3.04688 11.0051 3.04688 11.4258V48.1914C3.04688 48.6121 3.38782 48.9531 3.80859 48.9531H48.1914C48.6122 48.9531 48.9531 48.6121 48.9531 48.1914V3.80859C48.9531 3.38792 48.6122 3.04688 48.1914 3.04688Z" fill="#3035C4"/>
<path d="M26 23.207H24.4276L25.7443 17.0625H31.0273C32.5673 17.0625 33.8203 15.8096 33.8203 14.2695C33.8203 12.7294 32.5673 11.4766 31.0273 11.4766H23.4863C22.178 11.4766 21.0295 12.4051 20.7553 13.6843L18.2417 25.4148C18.0641 26.2435 18.2678 27.0968 18.8006 27.756C19.3335 28.4151 20.1252 28.793 20.9727 28.793H26C27.2321 28.793 28.2344 29.7953 28.2344 31.0273V32.7031C28.2344 33.9352 27.2321 34.9375 26 34.9375C24.768 34.9375 23.7656 33.9352 23.7656 32.7031C23.7656 31.163 22.5127 29.9102 20.9727 29.9102C19.4327 29.9102 18.1797 31.163 18.1797 32.7031C18.1797 37.0153 21.6879 40.5234 26 40.5234C30.3121 40.5234 33.8203 37.0153 33.8203 32.7031V31.0273C33.8203 26.7152 30.3121 23.207 26 23.207ZM32.2969 32.7031C32.2969 36.1752 29.4721 39 26 39C22.5279 39 19.7031 36.1752 19.7031 32.7031C19.7031 32.0031 20.2726 31.4336 20.9727 31.4336C21.6727 31.4336 22.2422 32.0031 22.2422 32.7031C22.2422 34.7752 23.9279 36.4609 26 36.4609C28.0721 36.4609 29.7578 34.7752 29.7578 32.7031V31.0273C29.7578 28.9553 28.0721 27.2695 26 27.2695H20.9727C20.5874 27.2695 20.2276 27.0977 19.9854 26.7982C19.7431 26.4986 19.6506 26.1107 19.7314 25.734L22.245 14.0035C22.3697 13.422 22.8916 13 23.4863 13H31.0273C31.7274 13 32.2969 13.5695 32.2969 14.2695C32.2969 14.9696 31.7274 15.5391 31.0273 15.5391H25.1284C24.7693 15.5391 24.4588 15.79 24.3835 16.1412L22.7405 23.8092C22.6922 24.0341 22.7483 24.2688 22.893 24.4477C23.0376 24.6266 23.2553 24.7306 23.4853 24.7306H26C29.4721 24.7306 32.2969 27.5553 32.2969 31.0274V32.7031Z" fill="#E6514A"/>
</svg>
