<svg width="57" height="58" viewBox="0 0 57 58" fill="none" xmlns="http://www.w3.org/2000/svg">
<path d="M54.4902 1.00024H43.3868C42.9247 1.00024 42.5502 1.37475 42.5502 1.83688C42.5502 2.299 42.9247 2.67351 43.3868 2.67351H54.4902C54.9515 2.67351 55.3268 3.0488 55.3268 3.51014V20.3489C55.3268 20.8102 54.9515 21.1855 54.4902 21.1855H31.4709V20.7833C31.4709 19.1512 30.1432 17.8236 28.5112 17.8236C26.8793 17.8236 25.5516 19.1513 25.5516 20.7833V21.1855H17.0295C16.5675 21.1855 16.1929 21.56 16.1929 22.0222C16.1929 22.4843 16.5675 22.8588 17.0295 22.8588H25.5516V37.6022L23.5645 35.3752C22.3379 34.0005 20.5778 33.2121 18.7355 33.2121C18.0489 33.2121 17.4296 33.5645 17.0788 34.1547C16.728 34.745 16.7147 35.4575 17.0429 36.0606L20.3747 42.1813C21.2006 43.6986 22.2541 45.072 23.5059 46.2632L27.0566 49.6416V51.4338C26.1882 51.6143 25.5337 52.3852 25.5337 53.3065V56.0878C25.5337 57.1425 26.3917 58.0005 27.4464 58.0005H40.6374C41.6921 58.0005 42.5502 57.1425 42.5502 56.0878V53.3065C42.5502 52.4051 41.9229 51.6494 41.0825 51.448V49.5883C41.8449 48.6264 44.2092 45.0964 44.2092 38.3153V33.2053C44.2092 31.5734 42.8815 30.2458 41.2496 30.2458C40.7042 30.2458 40.1927 30.3941 39.7534 30.6525C39.3173 29.5607 38.249 28.7871 37.0034 28.7871C36.458 28.7871 35.9466 28.9354 35.5073 29.1938C35.0713 28.102 34.003 27.3285 32.7573 27.3285C32.2965 27.3285 31.86 27.4343 31.4708 27.623V22.859H54.4901C55.874 22.859 56.9998 21.733 56.9998 20.3492V3.51003C57 2.12611 55.8741 1.00024 54.4902 1.00024V1.00024ZM32.7574 29.0013C33.4668 29.0013 34.0439 29.5785 34.0439 30.2879V31.7466C34.0439 32.2087 34.4184 32.5832 34.8806 32.5832C35.3427 32.5832 35.7172 32.2087 35.7172 31.7466C35.7172 31.0372 36.2943 30.4601 37.0037 30.4601C37.713 30.4601 38.2901 31.0372 38.2901 31.7466V33.2052C38.2901 33.6673 38.6646 34.0419 39.1267 34.0419C39.5889 34.0419 39.9634 33.6673 39.9634 33.2052C39.9634 32.4958 40.5405 31.9188 41.2499 31.9188C41.9593 31.9188 42.5364 32.4958 42.5364 33.2052V38.3152C42.5364 45.5028 39.6651 48.6792 39.6391 48.7073C39.4917 48.8626 39.4095 49.0686 39.4095 49.2828V51.3935H37.3884C36.9262 51.3935 36.5517 51.768 36.5517 52.2301C36.5517 52.6923 36.9262 53.0668 37.3884 53.0668H40.6375C40.7696 53.0668 40.8772 53.1743 40.8772 53.3065V56.0878C40.8772 56.2199 40.7696 56.3273 40.6375 56.3273H27.4464C27.3142 56.3273 27.2068 56.2199 27.2068 56.0878V53.3065C27.2068 53.1743 27.3142 53.0668 27.4464 53.0668H34.0419C34.5041 53.0668 34.8786 52.6923 34.8786 52.2301C34.8786 51.768 34.5041 51.3935 34.0419 51.3935H28.7299V49.2828C28.7299 49.0537 28.6359 48.8347 28.4699 48.6768L24.6593 45.0509C23.5339 43.98 22.5868 42.7454 21.8442 41.3812L18.5124 35.2604C18.4337 35.0494 18.5123 34.917 18.7354 34.8852C20.1014 34.8852 21.4064 35.4696 22.3158 36.489L25.7319 40.3175C26.2167 40.8878 27.2479 40.5241 27.2245 39.7606V20.7833C27.2245 20.0739 27.8016 19.4968 28.511 19.4968C29.2203 19.4968 29.7974 20.0739 29.7974 20.7833V30.2879C29.7974 30.75 30.1719 31.1245 30.6341 31.1245C31.0962 31.1245 31.4707 30.75 31.4707 30.2879C31.4709 29.5785 32.048 29.0013 32.7574 29.0013V29.0013Z" fill="#3035C4"/>
<path d="M13.6833 20.1852H2.50979C2.04844 20.1852 1.67315 19.8099 1.67315 19.3485V2.50979C1.67315 2.04844 2.04844 1.67315 2.50979 1.67315H40.0406C40.5027 1.67315 40.8772 1.29865 40.8772 0.836522C40.8772 0.374397 40.5027 0 40.0406 0H2.50979C1.12586 0 0 1.12586 0 2.50979V19.3485C0 20.7324 1.12586 21.8583 2.50979 21.8583H13.6833C14.1453 21.8583 14.5199 21.4838 14.5199 21.0217C14.5199 20.5596 14.1454 20.1852 13.6833 20.1852Z" fill="#3035C4"/>
<path d="M34.0055 10.301C34.4971 9.82197 34.6707 9.11882 34.4585 8.46599C34.2465 7.81316 33.6926 7.34625 33.0133 7.2475L31.0654 6.9645C31.0272 6.95894 30.9941 6.935 30.977 6.90038L30.1057 5.13516C29.802 4.51962 29.1869 4.13721 28.5004 4.13721C27.8139 4.13721 27.1987 4.51951 26.8949 5.13516L26.0236 6.90049C26.0065 6.935 25.9735 6.95905 25.9356 6.9645L23.9872 7.2475C23.3079 7.34625 22.7541 7.81316 22.5421 8.46599C22.33 9.11882 22.5035 9.82197 22.9951 10.301L24.4048 11.6753C24.4324 11.7022 24.445 11.7408 24.4384 11.7789L24.1057 13.7191C23.9897 14.3956 24.2625 15.0665 24.8178 15.47C25.3731 15.8736 26.0957 15.9258 26.7033 15.6064L28.4458 14.6902C28.4799 14.6722 28.5206 14.6722 28.5547 14.6902L30.2973 15.6064C30.5616 15.7452 30.8475 15.8139 31.132 15.8139C31.5017 15.8139 31.8689 15.698 32.1828 15.47C32.738 15.0665 33.0108 14.3956 32.8947 13.7191L32.5621 11.7789C32.5555 11.7409 32.5681 11.7022 32.5957 11.6753L34.0055 10.301ZM31.4279 10.4772C31.0058 10.8886 30.8133 11.481 30.9131 12.0618L31.2458 14.0022C31.2491 14.0218 31.2581 14.0739 31.1992 14.1166C31.1405 14.1593 31.0933 14.1346 31.0758 14.1255L29.3334 13.2095C29.0725 13.0722 28.7865 13.0037 28.5002 13.0037C28.2141 13.0037 27.928 13.0723 27.6672 13.2094L25.9248 14.1255C25.9072 14.1346 25.8603 14.1595 25.8013 14.1166C25.7424 14.0738 25.7513 14.0217 25.7548 14.0021L26.0875 12.0618C26.1872 11.4809 25.9947 10.8885 25.5726 10.4772L24.163 9.10312C24.1488 9.08921 24.1109 9.05225 24.1333 8.98311C24.1558 8.91386 24.2082 8.90618 24.2278 8.9034L26.1762 8.6204C26.7594 8.53557 27.2632 8.1693 27.5239 7.64105L28.3952 5.87582C28.4039 5.8579 28.4273 5.81058 28.5001 5.81058C28.5729 5.81058 28.5962 5.85801 28.6051 5.87582L29.4764 7.64094C29.737 8.16941 30.241 8.53557 30.8244 8.62051L32.7725 8.90351C32.7922 8.9064 32.8446 8.91398 32.867 8.98322C32.8895 9.05236 32.8516 9.08932 32.8374 9.10323L31.4279 10.4772Z" fill="#E6514A"/>
<path d="M16.214 13.7191L15.8813 11.7789C15.8747 11.7409 15.8873 11.7022 15.915 11.6753L17.3246 10.301C17.8162 9.82197 17.9897 9.11882 17.7776 8.46599C17.5656 7.81316 17.0118 7.34625 16.3324 7.2475L14.3844 6.9645C14.3462 6.95894 14.3132 6.935 14.2961 6.90038L13.4248 5.13516C13.121 4.51962 12.5059 4.13721 11.8195 4.13721C11.133 4.13721 10.5178 4.51951 10.214 5.13516L9.34285 6.90038C9.3257 6.935 9.29264 6.95894 9.25467 6.9645L7.30643 7.2475C6.6271 7.34625 6.07335 7.81316 5.86127 8.46599C5.64919 9.11882 5.82275 9.82197 6.31427 10.301L7.72402 11.6753C7.75163 11.7022 7.76421 11.7408 7.75764 11.7789L7.42488 13.7191C7.30888 14.3957 7.58174 15.0667 8.13705 15.47C8.69247 15.8737 9.41488 15.9257 10.0225 15.6064L11.765 14.6903C11.7991 14.6723 11.8398 14.6723 11.874 14.6903L13.6166 15.6064C13.8809 15.7452 14.1668 15.8139 14.4514 15.8139C14.821 15.8139 15.1883 15.698 15.5021 15.47C16.0572 15.0665 16.33 14.3956 16.214 13.7191ZM14.7472 10.477C14.325 10.8884 14.1325 11.4808 14.2322 12.0617L14.5649 14.002C14.5683 14.0216 14.5773 14.0737 14.5184 14.1165C14.4596 14.1594 14.4126 14.1345 14.395 14.1254L12.6525 13.2092C12.3917 13.0721 12.1056 13.0036 11.8195 13.0036C11.5333 13.0036 11.2471 13.0722 10.9864 13.2092L9.24399 14.1254C9.2264 14.1345 9.17953 14.1593 9.12064 14.1165C9.06174 14.0738 9.07065 14.0216 9.0741 14.002L9.40686 12.0617C9.5065 11.4808 9.31401 10.8884 8.89197 10.4771L7.48233 9.1029C7.46808 9.08898 7.43023 9.05202 7.4526 8.98289C7.47509 8.91364 7.52753 8.90596 7.54712 8.90318L9.49548 8.62018C10.0786 8.53535 10.5825 8.16919 10.8433 7.64082L11.7146 5.8756C11.7234 5.85768 11.7468 5.81036 11.8196 5.81036C11.8924 5.81036 11.9158 5.85779 11.9246 5.8756L12.7958 7.64071C13.0565 8.16919 13.5603 8.53535 14.1438 8.62029L16.0919 8.90329C16.1116 8.90618 16.1639 8.91375 16.1864 8.983C16.2089 9.05213 16.1711 9.0891 16.1568 9.10301L14.7472 10.477Z" fill="#E6514A"/>
<path d="M50.6867 10.301C51.1782 9.82197 51.3519 9.11882 51.1397 8.46599C50.9276 7.81316 50.3737 7.34625 49.6944 7.2475L47.7465 6.9645C47.7082 6.95894 47.6752 6.935 47.6581 6.90038L46.7868 5.13516C46.483 4.51962 45.8679 4.13721 45.1815 4.13721C44.495 4.13721 43.8798 4.51951 43.576 5.13516L42.7049 6.90027C42.6876 6.93489 42.6547 6.95894 42.6166 6.9645L40.6683 7.2475C39.9889 7.34625 39.4353 7.81316 39.2232 8.4661C39.0111 9.11893 39.1848 9.82208 39.6762 10.301L41.0859 11.6753C41.1134 11.7022 41.1261 11.7408 41.1194 11.7789L40.7869 13.7191C40.6708 14.3957 40.9437 15.0667 41.499 15.4701C42.0541 15.8737 42.7766 15.9259 43.3843 15.6065L45.1268 14.6904C45.1608 14.6725 45.2018 14.6723 45.2357 14.6904L46.9783 15.6065C47.2426 15.7453 47.5285 15.814 47.8131 15.814C48.1827 15.814 48.55 15.6981 48.8638 15.4701C49.419 15.0667 49.6918 14.3957 49.5757 13.7192L49.2431 11.779C49.2365 11.741 49.2491 11.7023 49.2767 11.6754L50.6867 10.301ZM48.109 10.4772C47.6869 10.8886 47.4944 11.481 47.5942 12.0618L47.927 14.0022C47.9302 14.0218 47.9392 14.0739 47.8803 14.1166C47.8216 14.1593 47.7744 14.1346 47.757 14.1255L46.0146 13.2095C45.7537 13.0722 45.4676 13.0037 45.1815 13.0037C44.8954 13.0037 44.6092 13.0723 44.3483 13.2094L42.6058 14.1255C42.5884 14.1346 42.5414 14.1594 42.4826 14.1166C42.4238 14.0739 42.4327 14.0218 42.436 14.0021L42.7686 12.0621C42.8683 11.4812 42.6759 10.8887 42.2539 10.4772L40.8442 9.1029C40.8301 9.0891 40.7921 9.05213 40.8146 8.983C40.8372 8.91375 40.8896 8.90607 40.9092 8.90329L42.8575 8.62029C43.4405 8.53546 43.9443 8.1693 44.2054 7.64094L45.0766 5.87571C45.0854 5.85779 45.1089 5.81047 45.1816 5.81047C45.2543 5.81047 45.2777 5.8579 45.2865 5.87571L46.1577 7.64082C46.4183 8.1693 46.9223 8.53546 47.5058 8.6204L49.4538 8.9034C49.4735 8.90629 49.526 8.91386 49.5483 8.98311C49.5709 9.05225 49.533 9.08921 49.5187 9.10312L48.109 10.4772Z" fill="#E6514A"/>
</svg>
