<svg width="56" height="55" viewBox="0 0 56 55" fill="none" xmlns="http://www.w3.org/2000/svg">
<path d="M55.5 6.41667V33.9167C55.4981 35.6179 54.8214 37.2489 53.6185 38.4518C52.4155 39.6547 50.7845 40.3314 49.0833 40.3333H38.2025L38.89 45.8333H40.8333C41.5627 45.8333 42.2621 46.1231 42.7779 46.6388C43.2936 47.1545 43.5833 47.854 43.5833 48.5833C43.5833 49.3127 43.2936 50.0121 42.7779 50.5279C42.2621 51.0436 41.5627 51.3333 40.8333 51.3333H29.8333V49.5H40.8333C41.0765 49.5 41.3096 49.4034 41.4815 49.2315C41.6534 49.0596 41.75 48.8264 41.75 48.5833C41.75 48.3402 41.6534 48.1071 41.4815 47.9352C41.3096 47.7632 41.0765 47.6667 40.8333 47.6667H29.8333V45.8333H37.0475L36.36 40.3333H29.8333V38.5H49.0833C50.2989 38.5 51.4647 38.0171 52.3242 37.1576C53.1838 36.298 53.6667 35.1322 53.6667 33.9167V33H29.8333V31.1667H53.6667V6.41667C53.6667 5.20109 53.1838 4.0353 52.3242 3.17576C51.4647 2.31622 50.2989 1.83333 49.0833 1.83333H12.4167C11.2011 1.83333 10.0353 2.31622 9.17576 3.17576C8.31622 4.0353 7.83333 5.20109 7.83333 6.41667V25.6667H6V6.41667C6.00194 4.71546 6.6786 3.08448 7.88154 1.88154C9.08448 0.678604 10.7155 0.00194091 12.4167 0H49.0833C50.7845 0.00194091 52.4155 0.678604 53.6185 1.88154C54.8214 3.08448 55.4981 4.71546 55.5 6.41667Z" fill="#3035C4"/>
<path d="M48.1666 33.8335H50V35.6668H48.1666V33.8335Z" fill="#3035C4"/>
<path d="M25.25 27.5H3.25C2.52132 27.5022 1.82311 27.7926 1.30786 28.3079C0.792606 28.8231 0.502176 29.5213 0.5 30.25V52.25C0.502176 52.9787 0.792606 53.6769 1.30786 54.1921C1.82311 54.7074 2.52132 54.9978 3.25 55H25.25C25.9787 54.9978 26.6769 54.7074 27.1921 54.1921C27.7074 53.6769 27.9978 52.9787 28 52.25V30.25C27.9978 29.5213 27.7074 28.8231 27.1921 28.3079C26.6769 27.7926 25.9787 27.5022 25.25 27.5ZM26.1667 52.25C26.1667 52.4931 26.0701 52.7263 25.8982 52.8982C25.7263 53.0701 25.4931 53.1667 25.25 53.1667H3.25C3.00688 53.1667 2.77373 53.0701 2.60182 52.8982C2.42991 52.7263 2.33333 52.4931 2.33333 52.25V30.25C2.33333 30.0069 2.42991 29.7737 2.60182 29.6018C2.77373 29.4299 3.00688 29.3333 3.25 29.3333H25.25C25.4931 29.3333 25.7263 29.4299 25.8982 29.6018C26.0701 29.7737 26.1667 30.0069 26.1667 30.25V52.25Z" fill="#3035C4"/>
<path d="M17.2814 39.7246L14.3481 37.7703C14.072 37.5868 13.7514 37.4816 13.4203 37.4659C13.0892 37.4502 12.76 37.5246 12.4678 37.6811C12.1756 37.8375 11.9313 38.0703 11.7608 38.3547C11.5904 38.639 11.5003 38.9642 11.5 39.2956V43.2043C11.4994 43.5364 11.589 43.8624 11.7592 44.1475C11.9295 44.4326 12.174 44.6662 12.4666 44.8232C12.7592 44.9802 13.089 45.0547 13.4207 45.0389C13.7524 45.0231 14.0736 44.9174 14.3499 44.7333L17.2833 42.779C17.5343 42.6116 17.7402 42.3847 17.8826 42.1186C18.025 41.8526 18.0995 41.5554 18.0995 41.2536C18.0995 40.9519 18.025 40.6547 17.8826 40.3886C17.7402 40.1226 17.5343 39.8957 17.2833 39.7283L17.2814 39.7246ZM13.3333 43.2098V39.2956L16.2667 41.25L13.3333 43.2098Z" fill="#E6514A"/>
<path d="M14.25 33C12.6183 33 11.0233 33.4839 9.66655 34.3904C8.30984 35.2969 7.25242 36.5854 6.628 38.0929C6.00357 39.6004 5.8402 41.2592 6.15853 42.8595C6.47685 44.4598 7.26259 45.9298 8.41637 47.0836C9.57016 48.2374 11.0402 49.0232 12.6405 49.3415C14.2409 49.6598 15.8997 49.4964 17.4071 48.872C18.9146 48.2476 20.2031 47.1902 21.1096 45.8335C22.0161 44.4768 22.5 42.8817 22.5 41.25C22.4976 39.0627 21.6276 36.9657 20.081 35.419C18.5343 33.8724 16.4373 33.0024 14.25 33ZM14.25 47.6667C12.9809 47.6667 11.7403 47.2903 10.6851 46.5853C9.62988 45.8802 8.80744 44.878 8.32178 43.7056C7.83611 42.5331 7.70904 41.2429 7.95663 39.9982C8.20422 38.7535 8.81535 37.6101 9.71274 36.7127C10.6101 35.8153 11.7535 35.2042 12.9982 34.9566C14.2429 34.709 15.5331 34.8361 16.7056 35.3218C17.878 35.8074 18.8802 36.6299 19.5853 37.6851C20.2903 38.7403 20.6667 39.9809 20.6667 41.25C20.6647 42.9512 19.9881 44.5822 18.7851 45.7851C17.5822 46.9881 15.9512 47.6647 14.25 47.6667Z" fill="#3035C4"/>
<path d="M46.865 16.545L44.5 15.7567V15.4725C45.068 15.0507 45.5296 14.502 45.8479 13.8702C46.1662 13.2383 46.3325 12.5408 46.3333 11.8333V9.08333C46.3333 7.86776 45.8504 6.70197 44.9909 5.84243C44.1313 4.98289 42.9655 4.5 41.75 4.5C40.5344 4.5 39.3686 4.98289 38.5091 5.84243C37.6495 6.70197 37.1666 7.86776 37.1666 9.08333V11.8333C37.1675 12.5408 37.3337 13.2383 37.652 13.8702C37.9703 14.502 38.4319 15.0507 39 15.4725V15.7567L36.635 16.545C35.7217 16.8473 34.9271 17.4299 34.3642 18.2101C33.8013 18.9902 33.4989 19.928 33.5 20.89V25.5833C33.5 25.8264 33.5965 26.0596 33.7685 26.2315C33.9404 26.4034 34.1735 26.5 34.4166 26.5H49.0833C49.3264 26.5 49.5596 26.4034 49.7315 26.2315C49.9034 26.0596 50 25.8264 50 25.5833V20.89C50.0011 19.928 49.6986 18.9902 49.1357 18.2101C48.5729 17.4299 47.7782 16.8473 46.865 16.545ZM39 9.08333C39 8.35399 39.2897 7.65451 39.8054 7.13879C40.3212 6.62306 41.0206 6.33333 41.75 6.33333C42.4793 6.33333 43.1788 6.62306 43.6945 7.13879C44.2102 7.65451 44.5 8.35399 44.5 9.08333V9.9725C44.3703 9.9424 44.2488 9.88407 44.1443 9.80169C44.0397 9.7193 43.9546 9.61487 43.895 9.49583L43.4916 8.67083C43.4258 8.54073 43.3302 8.42805 43.2125 8.342C43.0948 8.25595 42.9584 8.19897 42.8144 8.17573C42.6705 8.15248 42.5231 8.16363 42.3843 8.20826C42.2455 8.25288 42.1192 8.32973 42.0158 8.4325L41.7958 8.66167C41.0418 9.40345 40.0535 9.86032 39 9.95417V9.08333ZM39 11.7967C40.2274 11.7256 41.4069 11.2953 42.3916 10.5592C42.6211 10.9173 42.9314 11.2167 43.2976 11.4332C43.6637 11.6497 44.0756 11.7773 44.5 11.8058V11.8333C44.5 12.5627 44.2102 13.2622 43.6945 13.7779C43.1788 14.2936 42.4793 14.5833 41.75 14.5833C41.0206 14.5833 40.3212 14.2936 39.8054 13.7779C39.2897 13.2622 39 12.5627 39 11.8333V11.7967ZM42.9783 17.095L41.75 18.0208L40.5216 17.095C40.6185 17.0103 40.6964 16.9061 40.7501 16.7892C40.8038 16.6723 40.8322 16.5453 40.8333 16.4167V16.325C41.4383 16.4472 42.0616 16.4472 42.6666 16.325V16.4167C42.6677 16.5453 42.6961 16.6723 42.7498 16.7892C42.8035 16.9061 42.8814 17.0103 42.9783 17.095ZM48.1666 24.6667H35.3333V20.89C35.3327 20.3135 35.514 19.7515 35.8514 19.2841C36.1888 18.8167 36.6651 18.4676 37.2125 18.2867L38.4866 17.8558L41.2 19.9C41.3586 20.019 41.5516 20.0833 41.75 20.0833C41.9483 20.0833 42.1413 20.019 42.3 19.9L45.0133 17.8558L46.2875 18.2867C46.8348 18.4676 47.3111 18.8167 47.6485 19.2841C47.9859 19.7515 48.1672 20.3135 48.1666 20.89V24.6667Z" fill="#3035C4"/>
<path d="M29.8334 10.4372V14.5833H31.6667V9.0833C31.6669 8.90008 31.6121 8.72102 31.5095 8.56923C31.4069 8.41744 31.2612 8.29988 31.0911 8.23172L21.9244 4.56505C21.7054 4.47799 21.4614 4.47799 21.2424 4.56505L12.0757 8.23172C11.9053 8.2996 11.7592 8.41704 11.6563 8.56885C11.5533 8.72067 11.4983 8.89988 11.4983 9.0833C11.4983 9.26672 11.5533 9.44593 11.6563 9.59775C11.7592 9.74956 11.9053 9.867 12.0757 9.93488L15.1667 11.1706V16.4166C15.1667 16.6597 15.2633 16.8929 15.4352 17.0648C15.6071 17.2367 15.8403 17.3333 16.0834 17.3333H27.0834C27.3265 17.3333 27.5597 17.2367 27.7316 17.0648C27.9035 16.8929 28.0001 16.6597 28.0001 16.4166V11.1706L29.8334 10.4372ZM21.5834 6.40388L28.2824 9.0833L21.5834 11.7627L14.8844 9.0833L21.5834 6.40388ZM26.1667 15.5H17.0001V11.9039L21.2424 13.6016C21.4615 13.6883 21.7054 13.6883 21.9244 13.6016L26.1667 11.9039V15.5Z" fill="#E6514A"/>
<path d="M15.1667 19.1665H17.0001V20.9998H15.1667V19.1665Z" fill="#3035C4"/>
<path d="M18.8333 19.1665H28V20.9998H18.8333V19.1665Z" fill="#3035C4"/>
<path d="M15.1667 22.8333H28.0001V24.6666H15.1667V22.8333Z" fill="#3035C4"/>
</svg>
