<svg width="24" height="24" viewBox="0 0 24 24" fill="none" xmlns="http://www.w3.org/2000/svg">
<path d="M12.003 0H11.997C5.3805 0 0 5.382 0 12C0 14.625 0.846 17.058 2.2845 19.0335L0.789 23.4915L5.4015 22.017C7.299 23.274 9.5625 24 12.003 24C18.6195 24 24 18.6165 24 12C24 5.3835 18.6195 0 12.003 0Z" fill="#4CAF50"/>
<path d="M18.7319 17.1234C18.4263 17.9884 17.2136 18.7059 16.2462 18.9154C15.5844 19.0567 14.72 19.1694 11.81 17.9599C8.08788 16.4139 5.69088 12.622 5.50406 12.3759C5.32516 12.1299 4 10.3681 4 8.54591C4 6.72375 4.92302 5.83648 5.29508 5.45554C5.60064 5.14285 6.10569 5 6.59015 5C6.74689 5 6.8878 5.00794 7.01446 5.01429C7.38651 5.03016 7.57333 5.05238 7.81873 5.64125C8.1243 6.37932 8.86841 8.20148 8.95707 8.38877C9.04731 8.57607 9.13756 8.83003 9.0109 9.07605C8.89216 9.33001 8.78767 9.44271 8.60085 9.65857C8.41402 9.87444 8.2367 10.0395 8.04988 10.2712C7.8789 10.4728 7.68574 10.6887 7.90106 11.0617C8.11638 11.4268 8.86049 12.6442 9.95608 13.6219C11.3699 14.8838 12.5162 15.287 12.9262 15.4584C13.2318 15.5854 13.5959 15.5552 13.8191 15.3171C14.1025 15.0108 14.4524 14.5029 14.8087 14.0029C15.062 13.6441 15.3818 13.5997 15.7174 13.7267C16.0594 13.8457 17.869 14.7425 18.2411 14.9282C18.6131 15.1155 18.8585 15.2044 18.9488 15.3616C19.0374 15.5187 19.0374 16.2568 18.7319 17.1234Z" fill="#FAFAFA"/>
</svg>
