<svg width="52" height="52" viewBox="0 0 52 52" fill="none" xmlns="http://www.w3.org/2000/svg">
<path d="M51.2383 0H0.761719C0.341047 0 0 0.341047 0 0.761719V51.2383C0 51.659 0.341047 52 0.761719 52H51.2383C51.659 52 52 51.659 52 51.2383V0.761719C52 0.341047 51.659 0 51.2383 0ZM50.4766 50.4766H1.52344V1.52344H50.4766V50.4766Z" fill="#3035C4"/>
<path d="M48.1914 3.04688H3.80859C3.38792 3.04688 3.04688 3.38792 3.04688 3.80859V8.37891C3.04688 8.79958 3.38792 9.14062 3.80859 9.14062C4.22927 9.14062 4.57031 8.79958 4.57031 8.37891V4.57031H47.4297V47.4297H4.57031V11.4258C4.57031 11.0051 4.22927 10.6641 3.80859 10.6641C3.38792 10.6641 3.04688 11.0051 3.04688 11.4258V48.1914C3.04688 48.6121 3.38792 48.9531 3.80859 48.9531H48.1914C48.6121 48.9531 48.9531 48.6121 48.9531 48.1914V3.80859C48.9531 3.38792 48.6121 3.04688 48.1914 3.04688Z" fill="#3035C4"/>
<path d="M27.9051 11.6221C27.6175 11.5255 27.3184 11.4766 27.0159 11.4766C26.1465 11.4766 25.3142 11.8902 24.7895 12.5832L19.7113 19.2863C18.7814 20.5139 19.0236 22.2692 20.2511 23.1991C20.7406 23.5699 21.3231 23.7659 21.9358 23.7659C22.8192 23.7659 23.6312 23.3625 24.1638 22.6594L24.2227 22.5818V37.7305C24.2227 39.2706 25.4755 40.5234 27.0156 40.5234C28.5557 40.5234 29.8086 39.2706 29.8086 37.7305V14.2696C29.8086 13.0687 29.0437 12.0047 27.9051 11.6221ZM28.2853 37.7305C28.2853 38.4305 27.7158 39 27.0157 39C26.3157 39 25.7462 38.4305 25.7462 37.7305V20.3147C25.7462 19.9875 25.5372 19.6969 25.2271 19.5927C25.1474 19.5659 25.0656 19.553 24.9846 19.553C24.7507 19.553 24.5241 19.6611 24.3773 19.8549L22.9496 21.7394C22.7074 22.059 22.338 22.2424 21.936 22.2424C21.6581 22.2424 21.3936 22.1533 21.171 21.9847C20.613 21.562 20.5029 20.7641 20.9256 20.2062L26.0038 13.503C26.2423 13.1881 26.6207 13 27.0159 13C27.1531 13 27.2891 13.0223 27.42 13.0662C27.9375 13.2401 28.2853 13.7237 28.2853 14.2696V37.7305Z" fill="#E6514A"/>
</svg>
