<svg width="52" height="52" viewBox="0 0 52 52" fill="none" xmlns="http://www.w3.org/2000/svg">
<path d="M51.2383 0H0.761719C0.341047 0 0 0.341047 0 0.761719V51.2383C0 51.659 0.341047 52 0.761719 52H51.2383C51.6591 52 52 51.659 52 51.2383V0.761719C52 0.341047 51.6591 0 51.2383 0ZM50.4766 50.4766H1.52344V1.52344H50.4766V50.4766Z" fill="#3035C4"/>
<path d="M48.1914 3.04688H3.80859C3.38792 3.04688 3.04688 3.38792 3.04688 3.80859V8.37891C3.04688 8.79958 3.38792 9.14062 3.80859 9.14062C4.22927 9.14062 4.57031 8.79958 4.57031 8.37891V4.57031H47.4297V47.4297H4.57031V11.4258C4.57031 11.0051 4.22927 10.6641 3.80859 10.6641C3.38792 10.6641 3.04688 11.0051 3.04688 11.4258V48.1914C3.04688 48.6121 3.38792 48.9531 3.80859 48.9531H48.1914C48.6122 48.9531 48.9531 48.6121 48.9531 48.1914V3.80859C48.9531 3.38792 48.6122 3.04688 48.1914 3.04688Z" fill="#3035C4"/>
<path d="M33.8203 19.2969C33.8203 14.9847 30.3121 11.4766 26 11.4766C21.6879 11.4766 18.1797 14.9847 18.1797 19.2969C18.1797 20.837 19.4326 22.0898 20.9727 22.0898C22.5127 22.0898 23.7656 20.837 23.7656 19.2969C23.7656 18.0648 24.7679 17.0625 26 17.0625C27.2321 17.0625 28.2344 18.0648 28.2344 19.2969V20.9727C28.2344 22.2047 27.2321 23.207 26 23.207C24.4599 23.207 23.207 24.4599 23.207 26C23.207 27.5401 24.4599 28.793 26 28.793C27.2321 28.793 28.2344 29.7953 28.2344 31.0273V32.7031C28.2344 33.9352 27.2321 34.9375 26 34.9375C24.7679 34.9375 23.7656 33.9352 23.7656 32.7031C23.7656 31.163 22.5127 29.9102 20.9727 29.9102C19.4326 29.9102 18.1797 31.163 18.1797 32.7031C18.1797 37.0153 21.6879 40.5234 26 40.5234C30.3121 40.5234 33.8203 37.0153 33.8203 32.7031V31.0273C33.8203 29.1664 33.1744 27.4071 31.9872 26C33.1744 24.5929 33.8203 22.8336 33.8203 20.9727V19.2969ZM32.2969 20.9727C32.2969 22.67 31.6288 24.2627 30.4156 25.4573C30.2702 25.6005 30.1884 25.796 30.1884 26C30.1884 26.204 30.2703 26.3995 30.4156 26.5427C31.6288 27.7373 32.2969 29.33 32.2969 31.0273V32.7031C32.2969 36.1752 29.4721 39 26 39C22.5279 39 19.7031 36.1752 19.7031 32.7031C19.7031 32.0031 20.2726 31.4336 20.9727 31.4336C21.6727 31.4336 22.2422 32.0031 22.2422 32.7031C22.2422 34.7752 23.9279 36.4609 26 36.4609C28.0721 36.4609 29.7578 34.7752 29.7578 32.7031V31.0273C29.7578 28.9553 28.0721 27.2695 26 27.2695C25.2999 27.2695 24.7305 26.7001 24.7305 26C24.7305 25.2999 25.2999 24.7305 26 24.7305C28.0721 24.7305 29.7578 23.0447 29.7578 20.9727V19.2969C29.7578 17.2248 28.0721 15.5391 26 15.5391C23.9279 15.5391 22.2422 17.2248 22.2422 19.2969C22.2422 19.9969 21.6727 20.5664 20.9727 20.5664C20.2726 20.5664 19.7031 19.9969 19.7031 19.2969C19.7031 15.8248 22.5279 13 26 13C29.4721 13 32.2969 15.8248 32.2969 19.2969V20.9727Z" fill="#E6514A"/>
</svg>
