<svg width="59" height="59" viewBox="0 0 59 59" fill="none" xmlns="http://www.w3.org/2000/svg">
<path d="M58.9213 43.8763L54.0833 32.2533V2.95C54.081 2.16833 53.7694 1.41934 53.2167 0.866614C52.664 0.313887 51.915 0.00233452 51.1333 0H7.86667C7.085 0.00233452 6.33601 0.313887 5.78328 0.866614C5.23055 1.41934 4.919 2.16833 4.91667 2.95V32.2533L0.0786666 43.8763C0.0282796 43.9946 0.00155365 44.1215 0 44.25V48.1833C0.00233452 48.965 0.313887 49.714 0.866614 50.2667C1.41934 50.8194 2.16833 51.131 2.95 51.1333H38.35V49.1667H2.95C2.6892 49.1667 2.43909 49.0631 2.25468 48.8787C2.07027 48.6942 1.96667 48.4441 1.96667 48.1833V45.2333H35.4V43.2667H2.45833L6.55883 33.4333H52.4412L57.0333 44.4467V48.1833C57.0333 48.4441 56.9297 48.6942 56.7453 48.8787C56.5609 49.0631 56.3108 49.1667 56.05 49.1667H54.0833V51.1333H56.05C56.8317 51.131 57.5807 50.8194 58.1334 50.2667C58.6861 49.714 58.9977 48.965 59 48.1833V44.25C58.9984 44.1215 58.9717 43.9946 58.9213 43.8763ZM52.1167 31.4667H6.88333V2.95C6.88333 2.6892 6.98693 2.43909 7.17135 2.25468C7.35576 2.07027 7.60587 1.96667 7.86667 1.96667H51.1333C51.3941 1.96667 51.6442 2.07027 51.8287 2.25468C52.0131 2.43909 52.1167 2.6892 52.1167 2.95V31.4667Z" fill="#3035C4"/>
<path d="M7.8667 39.3335H9.83337V41.3002H7.8667V39.3335Z" fill="#3035C4"/>
<path d="M11.8 39.3335H13.7667V41.3002H11.8V39.3335Z" fill="#3035C4"/>
<path d="M12.7832 35.3999H14.7499V37.3666H12.7832V35.3999Z" fill="#3035C4"/>
<path d="M8.8501 35.3999H10.8168V37.3666H8.8501V35.3999Z" fill="#3035C4"/>
<path d="M16.7168 35.3999H18.6835V37.3666H16.7168V35.3999Z" fill="#3035C4"/>
<path d="M20.6499 35.3999H22.6166V37.3666H20.6499V35.3999Z" fill="#3035C4"/>
<path d="M24.5833 35.3999H26.5499V37.3666H24.5833V35.3999Z" fill="#3035C4"/>
<path d="M28.5166 35.3999H30.4833V37.3666H28.5166V35.3999Z" fill="#3035C4"/>
<path d="M32.45 35.3999H34.4166V37.3666H32.45V35.3999Z" fill="#3035C4"/>
<path d="M36.3833 35.3999H38.35V37.3666H36.3833V35.3999Z" fill="#3035C4"/>
<path d="M15.7334 39.3335H19.6667V41.3002H15.7334V39.3335Z" fill="#3035C4"/>
<path d="M21.6333 39.3335H37.3666V41.3002H21.6333V39.3335Z" fill="#3035C4"/>
<path d="M47.2 6.86668H44.25V3.91668C44.25 3.65589 44.1464 3.40577 43.962 3.22136C43.7776 3.03695 43.5274 2.93335 43.2666 2.93335H33.4333C32.6674 2.93631 31.9129 3.11837 31.2299 3.46497C30.547 3.81157 29.9545 4.31311 29.5 4.92952C29.0454 4.31311 28.453 3.81157 27.77 3.46497C27.0871 3.11837 26.3325 2.93631 25.5666 2.93335H15.7333C15.4725 2.93335 15.2224 3.03695 15.038 3.22136C14.8536 3.40577 14.75 3.65589 14.75 3.91668V6.86668H11.8C11.5392 6.86668 11.2891 6.97028 11.1047 7.1547C10.9203 7.33911 10.8167 7.58922 10.8167 7.85002V27.5167C10.8167 27.7775 10.9203 28.0276 11.1047 28.212C11.2891 28.3964 11.5392 28.5 11.8 28.5H47.2C47.4608 28.5 47.7109 28.3964 47.8953 28.212C48.0797 28.0276 48.1833 27.7775 48.1833 27.5167V7.85002C48.1833 7.58922 48.0797 7.33911 47.8953 7.1547C47.7109 6.97028 47.4608 6.86668 47.2 6.86668ZM14.75 26.5333H12.7833V8.83335H14.75V26.5333ZM16.7167 26.5333V24.5667H25.5666C26.1765 24.5684 26.771 24.7581 27.269 25.1101C27.767 25.462 28.1443 25.9591 28.3495 26.5333H16.7167ZM28.5166 23.6129C27.6719 22.9591 26.6348 22.603 25.5666 22.6H16.7167V4.90002H25.5666C26.3483 4.90235 27.0973 5.2139 27.65 5.76663C28.2028 6.31936 28.5143 7.06835 28.5166 7.85002V23.6129ZM42.2833 26.5333H30.6505C30.8556 25.9591 31.233 25.462 31.731 25.1101C32.229 24.7581 32.8235 24.5684 33.4333 24.5667H42.2833V26.5333ZM42.2833 22.6H33.4333C32.3652 22.603 31.328 22.9591 30.4833 23.6129V7.85002C30.4857 7.06835 30.7972 6.31936 31.3499 5.76663C31.9027 5.2139 32.6516 4.90235 33.4333 4.90002H42.2833V22.6ZM46.2166 26.5333H44.25V8.83335H46.2166V26.5333Z" fill="#3035C4"/>
<path d="M18.6833 6.8667H26.55V8.83337H18.6833V6.8667Z" fill="#3035C4"/>
<path d="M18.6833 10.8H26.55V12.7667H18.6833V10.8Z" fill="#3035C4"/>
<path d="M18.6833 14.7334H26.55V16.7001H18.6833V14.7334Z" fill="#3035C4"/>
<path d="M18.6833 18.6665H26.55V20.6332H18.6833V18.6665Z" fill="#3035C4"/>
<path d="M32.45 6.8667H40.3167V8.83337H32.45V6.8667Z" fill="#3035C4"/>
<path d="M32.45 10.8H40.3167V12.7667H32.45V10.8Z" fill="#3035C4"/>
<path d="M32.45 14.7334H40.3167V16.7001H32.45V14.7334Z" fill="#3035C4"/>
<path d="M32.45 18.6665H40.3167V20.6332H32.45V18.6665Z" fill="#3035C4"/>
<path d="M46.2165 39.3335C45.4386 39.3335 44.6781 39.5642 44.0313 39.9964C43.3845 40.4286 42.8803 41.0429 42.5826 41.7616C42.2849 42.4803 42.207 43.2712 42.3588 44.0342C42.5106 44.7972 42.8852 45.498 43.4353 46.0481C43.9853 46.5982 44.6862 46.9728 45.4492 47.1246C46.2122 47.2764 47.003 47.1985 47.7218 46.9008C48.4405 46.6031 49.0548 46.0989 49.487 45.4521C49.9192 44.8052 50.1499 44.0448 50.1499 43.2668C50.1499 42.2236 49.7355 41.2232 48.9978 40.4855C48.2602 39.7479 47.2597 39.3335 46.2165 39.3335ZM46.2165 45.2335C45.8276 45.2335 45.4473 45.1182 45.1239 44.9021C44.8005 44.686 44.5484 44.3788 44.3996 44.0194C44.2507 43.6601 44.2118 43.2646 44.2877 42.8832C44.3635 42.5017 44.5509 42.1512 44.8259 41.8762C45.1009 41.6011 45.4514 41.4138 45.8329 41.338C46.2144 41.2621 46.6098 41.301 46.9691 41.4499C47.3285 41.5987 47.6357 41.8508 47.8518 42.1742C48.0679 42.4976 48.1832 42.8779 48.1832 43.2668C48.1832 43.7884 47.976 44.2887 47.6072 44.6575C47.2384 45.0263 46.7381 45.2335 46.2165 45.2335Z" fill="#E6514A"/>
<path d="M53.452 41.1319C53.225 40.9553 53.0226 40.7493 52.8502 40.5192C52.8002 40.2172 52.7942 39.9095 52.8325 39.6057C52.9169 39.1903 52.9099 38.7614 52.812 38.3489C52.714 37.9365 52.5274 37.5503 52.2651 37.2172C51.9324 36.9549 51.5465 36.7684 51.1343 36.6708C50.7221 36.5731 50.2935 36.5666 49.8786 36.6518C49.5744 36.6903 49.2663 36.684 48.9641 36.6331C48.7341 36.4609 48.5284 36.2584 48.3524 36.0313C48.1154 35.6678 47.8011 35.361 47.4319 35.1329C47.0627 34.9048 46.6478 34.761 46.2166 34.7117C45.7855 34.761 45.3705 34.9048 45.0013 35.1329C44.6322 35.361 44.3178 35.6678 44.0808 36.0313C43.9049 36.2584 43.6992 36.4609 43.4692 36.6331C43.1669 36.684 42.8588 36.6903 42.5547 36.6518C42.1397 36.567 41.7112 36.5736 41.299 36.6712C40.8869 36.7689 40.501 36.9552 40.1681 37.2172C39.9059 37.5503 39.7193 37.9365 39.6213 38.3489C39.5233 38.7614 39.5163 39.1903 39.6008 39.6057C39.639 39.9095 39.633 40.2172 39.5831 40.5192C39.4106 40.7493 39.2082 40.9553 38.9813 41.1319C38.6179 41.3688 38.3112 41.6829 38.0831 42.0519C37.855 42.4209 37.7111 42.8357 37.6616 43.2667C37.7111 43.6976 37.855 44.1124 38.0831 44.4814C38.3112 44.8504 38.6179 45.1646 38.9813 45.4015C39.2082 45.578 39.4106 45.784 39.5831 46.0141C39.633 46.3162 39.639 46.6239 39.6008 46.9276C39.5163 47.3431 39.5233 47.7719 39.6213 48.1844C39.7193 48.5969 39.9059 48.9831 40.1681 49.3161C40.4765 49.616 40.8735 49.8081 41.3 49.8639V58.0167C41.3 58.1993 41.3508 58.3783 41.4468 58.5336C41.5428 58.689 41.6802 58.8145 41.8435 58.8962C42.0069 58.9779 42.1897 59.0124 42.3716 58.996C42.5535 58.9796 42.7272 58.9129 42.8733 58.8033L46.2166 56.2958L49.56 58.8033C49.706 58.9129 49.8798 58.9796 50.0616 58.996C50.2435 59.0124 50.4264 58.9779 50.5897 58.8962C50.7531 58.8145 50.8904 58.689 50.9864 58.5336C51.0824 58.3783 51.1333 58.1993 51.1333 58.0167V49.8639C51.5599 49.8085 51.957 49.6163 52.2651 49.3161C52.5274 48.9831 52.714 48.5969 52.812 48.1844C52.9099 47.7719 52.9169 47.3431 52.8325 46.9276C52.7942 46.6239 52.8002 46.3162 52.8502 46.0141C53.0226 45.784 53.225 45.578 53.452 45.4015C53.8154 45.1646 54.1221 44.8504 54.3502 44.4814C54.5783 44.1124 54.7222 43.6976 54.7716 43.2667C54.7222 42.8357 54.5783 42.4209 54.3502 42.0519C54.1221 41.6829 53.8154 41.3688 53.452 41.1319ZM46.8066 54.28C46.6364 54.1523 46.4294 54.0833 46.2166 54.0833C46.0039 54.0833 45.7968 54.1523 45.6266 54.28L43.2666 56.05V49.8658C43.3354 49.8678 43.4036 49.8794 43.4692 49.9002C43.6992 50.0725 43.9049 50.2749 44.0808 50.502C44.3178 50.8656 44.6322 51.1723 45.0013 51.4004C45.3705 51.6285 45.7855 51.7723 46.2166 51.8217C46.6478 51.7723 47.0627 51.6285 47.4319 51.4004C47.8011 51.1723 48.1154 50.8656 48.3524 50.502C48.5284 50.2749 48.7341 50.0725 48.9641 49.9002C49.0296 49.8794 49.0978 49.8678 49.1666 49.8658V56.05L46.8066 54.28ZM52.1579 43.9216C51.6863 44.2765 51.3022 44.7346 51.035 45.2609C50.8458 45.8367 50.7896 46.4479 50.8707 47.0486C50.8884 47.3377 50.9179 47.8225 50.9091 47.9001C50.6091 47.9504 50.3033 47.9567 50.0015 47.9188C49.4005 47.837 48.7888 47.8932 48.2128 48.083C47.6863 48.3508 47.2282 48.7357 46.8735 49.208C46.6845 49.4448 46.4727 49.6625 46.2412 49.858C45.983 49.6778 45.7544 49.4585 45.5637 49.208C45.2082 48.7361 44.7494 48.352 44.2224 48.085C43.859 47.9473 43.4721 47.8825 43.0837 47.8942C42.8625 47.8942 42.6422 47.908 42.4337 47.9208C42.1387 47.9385 41.6589 47.968 41.5822 47.9591C41.5328 47.6587 41.5269 47.3527 41.5645 47.0505C41.6456 46.4499 41.5895 45.8387 41.4003 45.2628C41.1324 44.7364 40.7476 44.2782 40.2753 43.9235C40.0388 43.7346 39.8211 43.5232 39.6253 43.2922C39.8051 43.0334 40.0245 42.8045 40.2753 42.6137C40.7471 42.2583 41.1313 41.7994 41.3983 41.2725C41.5875 40.6967 41.6436 40.0854 41.5625 39.4848C41.5448 39.1957 41.5153 38.7109 41.5242 38.6332C41.8242 38.5829 42.1299 38.5766 42.4318 38.6145C43.0327 38.6963 43.6444 38.6402 44.2205 38.4503C44.7469 38.1825 45.2051 37.7977 45.5598 37.3254C45.7487 37.0885 45.9605 36.8708 46.192 36.6754C46.4503 36.8555 46.6789 37.0748 46.8696 37.3254C47.225 37.7972 47.6839 38.1813 48.2108 38.4483C48.7869 38.6381 49.3985 38.6942 49.9995 38.6126C50.2945 38.5939 50.7724 38.5624 50.8511 38.5742C50.9004 38.8747 50.9064 39.1807 50.8688 39.4828C50.7876 40.0835 50.8438 40.6947 51.033 41.2705C51.3008 41.797 51.6856 42.2551 52.1579 42.6098C52.3997 42.7984 52.615 43.0187 52.7981 43.2647C52.6152 43.5114 52.3999 43.7324 52.1579 43.9216Z" fill="#E6514A"/>
</svg>
