<svg width="51" height="48" viewBox="0 0 51 48" fill="none" xmlns="http://www.w3.org/2000/svg">
<path d="M31.9252 23.498C28.8811 23.498 26.4133 25.9658 26.4133 29.0099C26.4133 32.054 28.8811 34.5217 31.9252 34.5217C34.9692 34.5217 37.437 32.054 37.437 29.0099C37.437 25.9657 34.9692 23.498 31.9252 23.498ZM35.3412 28.9994C35.3412 30.8861 33.8119 32.4155 31.9252 32.4155C30.0385 32.4155 28.5091 30.8861 28.5091 28.9994C28.5091 27.1127 30.0385 25.5833 31.9252 25.5833C33.8119 25.5833 35.3412 27.1127 35.3412 28.9994Z" fill="#3035C4"/>
<path d="M39.0823 9.67188H22.5782C21.9995 9.67188 21.5303 10.1411 21.5303 10.7198C21.5303 11.2984 21.9995 11.7676 22.5782 11.7676H39.0823C39.6609 11.7676 40.1301 11.2984 40.1301 10.7198C40.1301 10.1411 39.6609 9.67188 39.0823 9.67188Z" fill="#3035C4"/>
<path d="M33.8429 5.6272H22.5782C21.9995 5.6272 21.5303 6.09638 21.5303 6.67507C21.5303 7.25376 21.9995 7.72295 22.5782 7.72295H33.8429C34.4216 7.72295 34.8908 7.25376 34.8908 6.67507C34.8908 6.09638 34.4216 5.6272 33.8429 5.6272Z" fill="#3035C4"/>
<path d="M14.3209 10.3949C14.9204 9.70212 15.2514 8.81719 15.2535 7.90095C15.3646 5.76839 13.726 3.94941 11.5933 3.83834C9.46075 3.72726 7.64176 5.36601 7.53069 7.49857C7.52375 7.63256 7.52375 7.76695 7.53069 7.90095C7.53278 8.81719 7.86378 9.70212 8.4633 10.3949C6.36296 11.4868 5.0429 13.6548 5.03674 16.022C5.03674 16.6007 5.50593 17.0699 6.08462 17.0699H16.6996C17.2783 17.0699 17.7475 16.6007 17.7475 16.022C17.7413 13.6548 16.4213 11.4869 14.3209 10.3949ZM11.3869 6.14065C12.3649 6.14065 13.1578 6.9335 13.1578 7.91156C13.1578 8.88962 12.3649 9.68247 11.3869 9.68247C10.4088 9.68247 9.61596 8.88962 9.61596 7.91156C9.61596 6.9335 10.4088 6.14065 11.3869 6.14065ZM7.26872 14.9846C7.83575 12.7044 10.1438 11.3156 12.424 11.8826C13.9525 12.2627 15.1459 13.4561 15.526 14.9846H7.26872Z" fill="#E6514A"/>
<path d="M48.2196 0.298096H2.34359C1.12242 0.298096 0.132568 1.28808 0.132568 2.50911V30.5293C0.132568 31.7505 1.12242 32.7403 2.34359 32.7403H22.8191V37.0157C22.8191 37.5944 23.2883 38.0635 23.867 38.0635H26.078V46.9495C26.0765 47.5282 26.5445 47.9986 27.1232 48C27.2761 48.0004 27.4273 47.9673 27.566 47.9031L31.9042 45.9121L36.2424 47.9031C36.3806 47.9661 36.5307 47.9982 36.6825 47.9974C37.2612 47.9974 37.7304 47.5282 37.7304 46.9495V38.0845H39.9519C40.5306 38.0845 40.9997 37.6153 40.9997 37.0366V32.7613H48.1986C49.4197 32.773 50.419 31.7925 50.4306 30.5715C50.4308 30.5575 50.4308 30.5435 50.4306 30.5293V2.50911C50.4306 1.28808 49.4408 0.298096 48.2196 0.298096ZM35.6451 45.3568L32.3548 43.848C32.0785 43.7219 31.7613 43.7219 31.485 43.848L28.1947 45.3569V38.1161L31.1811 41.1025C31.5898 41.5088 32.25 41.5088 32.6586 41.1025L35.6451 38.1161V45.3568ZM39.8366 30.9799L39.2079 31.6086C39.0118 31.8064 38.9024 32.0741 38.904 32.3526V36.0097H35.2469C34.9684 36.0081 34.7007 36.1175 34.5029 36.3136L31.9251 38.8285L29.3369 36.2402C29.1391 36.0442 28.8714 35.9348 28.5929 35.9364H24.9358V32.3317C24.9374 32.0532 24.828 31.7855 24.6319 31.5877L22.0437 28.9994L24.6319 26.4112C24.828 26.2134 24.9374 25.9456 24.9358 25.6672V22.0625H28.5929C28.8714 22.0641 29.1391 21.9547 29.3369 21.7586L31.9251 19.1703L34.5134 21.7586C34.7112 21.9547 34.9789 22.0641 35.2574 22.0625H38.904V25.7196C38.9024 25.998 39.0118 26.2658 39.2079 26.4636L41.7961 29.0518L39.8366 30.9799ZM48.3244 30.5608C48.3244 30.6244 48.2728 30.676 48.2091 30.676H43.0955L43.9967 29.7748C44.403 29.3662 44.403 28.706 43.9967 28.2973L40.9997 25.2061V21.0146C40.9997 20.4359 40.5306 19.9667 39.9519 19.9667H35.6765L32.6167 16.9069C32.2081 16.5006 31.5479 16.5006 31.1392 16.9069L28.1633 19.9667H23.8879C23.3092 19.9667 22.84 20.4359 22.84 21.0146V25.2061L19.8222 28.224C19.4158 28.6327 19.4158 29.2928 19.8222 29.7015L20.7233 30.6027H2.34359C2.27993 30.6027 2.22832 30.5511 2.22832 30.4874V2.50911C2.22832 2.44546 2.27993 2.39385 2.34359 2.39385H48.2196C48.2833 2.39385 48.3349 2.44546 48.3349 2.50911L48.3244 30.5608Z" fill="#3035C4"/>
</svg>
