<svg width="59" height="60" viewBox="0 0 59 60" fill="none" xmlns="http://www.w3.org/2000/svg">
<path d="M25.5667 21.6333H27.5333V23.6H25.5667V21.6333Z" fill="#3035C4"/>
<path d="M31.4666 21.6333H33.4333V23.6H31.4666V21.6333Z" fill="#3035C4"/>
<path d="M57.0333 1.96667V0H55.0666V1.96667H53.1V3.93333H55.0666V5.9H57.0333V3.93333H59V1.96667H57.0333Z" fill="#E6514A"/>
<path d="M48.1833 13.7667H50.1499V11.8H52.1166V9.83337H50.1499V7.8667H48.1833V9.83337H46.2166V11.8H48.1833V13.7667Z" fill="#E6514A"/>
<path d="M1.96667 5.9H3.93333V3.93333H5.9V1.96667H3.93333V0H1.96667V1.96667H0V3.93333H1.96667V5.9Z" fill="#E6514A"/>
<path d="M8.85003 13.7667H10.8167V11.8H12.7834V9.83337H10.8167V7.8667H8.85003V9.83337H6.88336V11.8H8.85003V13.7667Z" fill="#E6514A"/>
<path d="M56.05 54.1001C55.7892 54.1001 55.5391 53.9965 55.3547 53.8121C55.1703 53.6277 55.0667 53.3776 55.0667 53.1168C55.0667 52.856 55.1703 52.6059 55.3547 52.4215C55.5391 52.2371 55.7892 52.1335 56.05 52.1335C56.8324 52.1335 57.5827 51.8227 58.136 51.2694C58.6892 50.7162 59 49.9659 59 49.1835C59 48.4011 58.6892 47.6507 58.136 47.0975C57.5827 46.5443 56.8324 46.2335 56.05 46.2335H40.3167V43.2835H48.3505C49.0887 43.2888 49.8016 43.0152 50.3467 42.5175C50.8919 42.0197 51.229 41.3346 51.2907 40.599L52.1167 31.572C52.1199 31.4765 52.1133 31.3809 52.097 31.2868L50.7597 24.6296C50.539 23.5137 49.9381 22.5087 49.0595 21.7861C48.1809 21.0635 47.0789 20.6679 45.9413 20.6668H45.3415C44.67 20.6546 44.0135 20.8665 43.4757 21.2689C42.938 21.6714 42.5496 22.2414 42.3718 22.8891C42.2621 23.3247 42.2532 23.7796 42.3456 24.2192C42.4381 24.6588 42.6295 25.0715 42.9053 25.4261C43.1812 25.7806 43.5342 26.0676 43.9376 26.2653C44.341 26.4629 44.7841 26.566 45.2333 26.5668V33.1355C44.2978 32.6966 43.2774 32.4684 42.244 32.4668C41.0593 32.4763 39.8998 32.8095 38.8908 33.4305C38.0376 32.9165 37.0799 32.6007 36.0883 32.5061C35.86 32.4781 35.6301 32.4649 35.4 32.4668H33.4333V31.4048C34.3345 30.88 35.1232 30.1825 35.7543 29.3523C36.3854 28.5221 36.8464 27.5755 37.111 26.5668H37.3667C38.1491 26.5668 38.8994 26.256 39.4526 25.7028C40.0059 25.1495 40.3167 24.3992 40.3167 23.6168C40.3167 22.8344 40.0059 22.0841 39.4526 21.5308C38.8994 20.9776 38.1491 20.6668 37.3667 20.6668V16.1336L40.3167 15.1503V19.6835H42.2833V13.7835C42.2818 13.5778 42.2168 13.3776 42.0971 13.2104C41.9773 13.0432 41.8089 12.917 41.6147 12.8493L29.8147 8.91596C29.6106 8.84702 29.3894 8.84702 29.1853 8.91596L17.3853 12.8493C17.1886 12.914 17.0173 13.0391 16.8959 13.2068C16.7744 13.3746 16.709 13.5764 16.709 13.7835C16.709 13.9906 16.7744 14.1924 16.8959 14.3601C17.0173 14.5278 17.1886 14.653 17.3853 14.7176L21.6333 16.1336V20.6668C20.8509 20.6668 20.1006 20.9776 19.5474 21.5308C18.9941 22.0841 18.6833 22.8344 18.6833 23.6168C18.6833 24.3992 18.9941 25.1495 19.5474 25.7028C20.1006 26.256 20.8509 26.5668 21.6333 26.5668H21.889C22.1536 27.5755 22.6146 28.5221 23.2457 29.3523C23.8768 30.1825 24.6655 30.88 25.5667 31.4048V32.4668H23.6C22.3676 32.467 21.1582 32.8 20.0993 33.4305C19.0945 32.8084 17.9378 32.475 16.756 32.4668C15.7223 32.4656 14.7013 32.694 13.7667 33.1355V26.5668C14.4191 26.5571 15.0505 26.3349 15.5652 25.9338C16.0798 25.5327 16.4496 24.9747 16.6183 24.3445C16.73 23.9095 16.7408 23.4548 16.6498 23.015C16.5588 22.5752 16.3684 22.1621 16.0932 21.8072C15.818 21.4523 15.4653 21.1651 15.0621 20.9674C14.6588 20.7698 14.2157 20.6669 13.7667 20.6668H13.0587C11.9225 20.6675 10.8216 21.0617 9.94315 21.7823C9.06474 22.503 8.46303 23.5056 8.24033 24.6198L6.903 31.2868C6.88667 31.3809 6.88008 31.4765 6.88333 31.572L7.70933 40.599C7.77101 41.3346 8.10814 42.0197 8.65327 42.5175C9.1984 43.0152 9.91134 43.2888 10.6495 43.2835H18.6833V46.2335H6.88333C5.05776 46.2335 3.30696 46.9587 2.01608 48.2495C0.725206 49.5404 0 51.2912 0 53.1168C0 54.9424 0.725206 56.6932 2.01608 57.984C3.30696 59.2749 5.05776 60.0001 6.88333 60.0001H56.05C56.8324 60.0001 57.5827 59.6893 58.136 59.1361C58.6892 58.5829 59 57.8325 59 57.0501C59 56.2677 58.6892 55.5174 58.136 54.9642C57.5827 54.4109 56.8324 54.1001 56.05 54.1001ZM21.6333 24.6001C21.3725 24.6001 21.1224 24.4965 20.938 24.3121C20.7536 24.1277 20.65 23.8776 20.65 23.6168C20.65 23.356 20.7536 23.1059 20.938 22.9215C21.1224 22.7371 21.3725 22.6335 21.6333 22.6335V24.6001ZM44.5352 24.2953C44.4129 24.1788 44.3245 24.0313 44.2795 23.8685C44.2345 23.7057 44.2345 23.5337 44.2795 23.371C44.3535 23.1501 44.4968 22.959 44.6882 22.8261C44.8795 22.6932 45.1087 22.6256 45.3415 22.6335H45.9413C46.6238 22.6355 47.2846 22.8736 47.8115 23.3074C48.3384 23.7411 48.6991 24.3438 48.8323 25.0131L49.147 26.5668H47.2V25.5835C47.2 25.3227 47.0964 25.0726 46.912 24.8881C46.7276 24.7037 46.4775 24.6001 46.2167 24.6001H45.2333C45.1021 24.6013 44.972 24.5747 44.8517 24.5222C44.7314 24.4697 44.6236 24.3924 44.5352 24.2953ZM35.3312 37.7473L36.5997 34.5908C37.2171 34.7455 37.7983 35.0194 38.3107 35.3971C38.4809 35.5248 38.6879 35.5938 38.9007 35.5938C39.1134 35.5938 39.3205 35.5248 39.4907 35.3971C40.2882 34.7877 41.2601 34.45 42.2637 34.4335H42.2932C43.4989 34.4385 44.6608 34.8865 45.5578 35.6921C45.6983 35.8222 45.8743 35.9076 46.0634 35.9374C46.2525 35.9671 46.4462 35.94 46.6198 35.8593C46.7924 35.7817 46.9389 35.6561 47.0418 35.4974C47.1447 35.3386 47.1996 35.1536 47.2 34.9645V28.5335H49.5403L50.1402 31.5326L49.3338 40.422C49.3117 40.6671 49.1984 40.8951 49.0163 41.0607C48.8343 41.2264 48.5967 41.3178 48.3505 41.3168H39.3333C39.0725 41.3168 38.8224 41.4204 38.638 41.6048C38.4536 41.7892 38.35 42.0393 38.35 42.3001V46.2335H33.276L31.7223 37.5408L31.7322 37.5211L34.102 38.3176C34.2043 38.3476 34.3101 38.3641 34.4167 38.3668C34.6136 38.367 34.8061 38.308 34.9691 38.1976C35.1322 38.0871 35.2583 37.9303 35.3312 37.7473ZM34.5347 34.4335L33.8463 36.1543L32.1648 35.5938L31.801 34.876L32.686 34.4335H34.5347ZM35.4 19.6835H23.6V16.7826L29.1853 18.651C29.39 18.7165 29.61 18.7165 29.8147 18.651L35.4 16.7826V19.6835ZM38.35 23.6168C38.35 23.8776 38.2464 24.1277 38.062 24.3121C37.8776 24.4965 37.6275 24.6001 37.3667 24.6001V22.6335C37.6275 22.6335 37.8776 22.7371 38.062 22.9215C38.2464 23.1059 38.35 23.356 38.35 23.6168ZM20.8073 13.7835L29.5 10.8826L38.1927 13.7835L29.5 16.6843L20.8073 13.7835ZM23.6 24.6001V21.6501H35.4V24.6001C35.4 26.1649 34.7784 27.6656 33.6719 28.7721C32.5655 29.8785 31.0648 30.5001 29.5 30.5001C27.9352 30.5001 26.4345 29.8785 25.3281 28.7721C24.2216 27.6656 23.6 26.1649 23.6 24.6001ZM28.9887 39.183C29.137 39.2916 29.3161 39.3502 29.5 39.3502C29.6839 39.3502 29.863 39.2916 30.0113 39.183L31.2798 46.2335H27.7202L28.9887 39.183ZM28.733 36.2035L29.1263 35.4168H29.8737L30.267 36.2035L29.5 36.9803L28.733 36.2035ZM30.2473 33.4501H28.7527L27.5333 32.8405V32.2111C28.8223 32.552 30.1777 32.552 31.4667 32.2111V32.8405L30.2473 33.4501ZM26.314 34.4335L27.199 34.876L26.8352 35.5938L25.1537 36.1543L24.4653 34.4335H26.314ZM10.1677 25.0033C10.3032 24.3359 10.6649 23.7357 11.1915 23.304C11.7182 22.8723 12.3777 22.6355 13.0587 22.6335H13.7667C13.9157 22.6367 14.0621 22.6732 14.1952 22.7403C14.3284 22.8073 14.4449 22.9032 14.5363 23.0209C14.6276 23.1387 14.6916 23.2754 14.7235 23.421C14.7553 23.5666 14.7543 23.7175 14.7205 23.8626C14.6465 24.0835 14.5032 24.2746 14.3118 24.4075C14.1205 24.5404 13.8913 24.608 13.6585 24.6001H12.7833C12.5225 24.6001 12.2724 24.7037 12.088 24.8881C11.9036 25.0726 11.8 25.3227 11.8 25.5835V26.5668H9.853L10.1677 25.0033ZM10.6495 41.3168C10.4033 41.3178 10.1658 41.2264 9.98369 41.0607C9.80162 40.8951 9.68832 40.6671 9.66617 40.422L8.85983 31.5326L9.45967 28.5335H11.8V34.9645C11.8004 35.1545 11.8559 35.3403 11.9597 35.4994C12.0636 35.6585 12.2112 35.7842 12.385 35.8612C12.5587 35.9381 12.751 35.9631 12.9386 35.9331C13.1262 35.9031 13.3011 35.8194 13.4422 35.6921C14.3392 34.8865 15.5011 34.4385 16.7068 34.4335H16.7363C17.7399 34.45 18.7118 34.7877 19.5093 35.3971C19.677 35.5263 19.8827 35.5964 20.0944 35.5964C20.3061 35.5964 20.5118 35.5263 20.6795 35.3971C21.1982 35.02 21.7864 34.7493 22.4102 34.6006L23.6688 37.7473C23.7417 37.9303 23.8678 38.0871 24.0309 38.1976C24.1939 38.308 24.3864 38.367 24.5833 38.3668C24.6899 38.3641 24.7957 38.3476 24.898 38.3176L27.2678 37.5211L27.2777 37.5408L25.724 46.2335H20.65V42.3001C20.65 42.0393 20.5464 41.7892 20.362 41.6048C20.1776 41.4204 19.9275 41.3168 19.6667 41.3168H10.6495ZM56.05 58.0335H6.88333C5.57935 58.0335 4.32878 57.5155 3.40672 56.5934C2.48467 55.6713 1.96667 54.4208 1.96667 53.1168C1.96667 51.8128 2.48467 50.5622 3.40672 49.6402C4.32878 48.7181 5.57935 48.2001 6.88333 48.2001H56.05C56.3108 48.2001 56.5609 48.3037 56.7453 48.4881C56.9297 48.6726 57.0333 48.9227 57.0333 49.1835C57.0333 49.4443 56.9297 49.6944 56.7453 49.8788C56.5609 50.0632 56.3108 50.1668 56.05 50.1668H6.88333C6.10094 50.1668 5.3506 50.4776 4.79737 51.0308C4.24414 51.5841 3.93333 52.3344 3.93333 53.1168C3.93333 53.8992 4.24414 54.6495 4.79737 55.2028C5.3506 55.756 6.10094 56.0668 6.88333 56.0668H56.05C56.3108 56.0668 56.5609 56.1704 56.7453 56.3548C56.9297 56.5392 57.0333 56.7893 57.0333 57.0501C57.0333 57.3109 56.9297 57.561 56.7453 57.7454C56.5609 57.9299 56.3108 58.0335 56.05 58.0335ZM53.277 54.1001H6.88333C6.62254 54.1001 6.37242 53.9965 6.18801 53.8121C6.0036 53.6277 5.9 53.3776 5.9 53.1168C5.9 52.856 6.0036 52.6059 6.18801 52.4215C6.37242 52.2371 6.62254 52.1335 6.88333 52.1335H53.277C53.041 52.7678 53.041 53.4658 53.277 54.1001Z" fill="#3035C4"/>
</svg>
