<svg width="54" height="54" viewBox="0 0 54 54" fill="none" xmlns="http://www.w3.org/2000/svg">
<path d="M21.9066 50.0072C21.4774 50.0072 21.1295 50.3551 21.1295 50.7842V53.2228C21.1295 53.6519 21.4774 53.9998 21.9066 53.9998C22.3358 53.9998 22.6836 53.6519 22.6836 53.2228V50.7842C22.6836 50.3551 22.3358 50.0072 21.9066 50.0072ZM5.37397 50.0072C4.94474 50.0072 4.59694 50.3551 4.59694 50.7842V53.2228C4.59694 53.6519 4.94474 53.9998 5.37397 53.9998C5.80321 53.9998 6.15101 53.6519 6.15101 53.2228V50.7842C6.15101 50.3551 5.80321 50.0072 5.37397 50.0072ZM47.6523 50.0072C47.2231 50.0072 46.8753 50.3551 46.8753 50.7842V53.2228C46.8753 53.6519 47.2231 53.9998 47.6523 53.9998C48.0816 53.9998 48.4294 53.6519 48.4294 53.2228V50.7842C48.4294 50.3551 48.0816 50.0072 47.6523 50.0072ZM21.5347 40.7128L17.7227 39.6416C17.6963 39.6322 17.6695 39.6239 17.6422 39.6175C17.2202 39.4844 16.9279 39.0894 16.9279 38.6447V38.4888C17.5984 38.2711 18.2132 37.8979 18.7262 37.3855L19.3776 36.7347C20.3845 35.729 20.953 34.4029 20.9912 32.9865H21.8706C22.996 32.9865 23.9115 32.0715 23.9115 30.9468V28.9766C23.9115 27.852 22.996 26.9369 21.8706 26.9369H20.995V22.3408C20.9889 19.6859 18.8209 17.4193 16.065 17.415H11.2347C8.5163 17.415 6.30476 19.6247 6.30476 22.3408V26.9369H5.42909C4.30374 26.9369 3.38818 27.852 3.38818 28.9766V30.9468C3.38818 32.0715 4.30374 32.9865 5.42909 32.9865H6.30849C6.34672 34.4029 6.9152 35.729 7.92203 36.7346L8.57349 37.3856C9.08654 37.8981 9.70133 38.2713 10.3719 38.4889V38.6426C10.3719 39.0979 10.0654 39.5023 9.62684 39.6258L5.76384 40.7129C2.42217 41.3914 0 44.3374 0 47.7298V53.2229C0 53.652 0.347801 53.9999 0.777035 53.9999C1.20627 53.9999 1.55407 53.652 1.55407 53.2229V47.7298C1.54319 45.1059 3.50142 42.7078 6.15629 42.217L9.72889 41.2116C10.5426 41.6668 11.9206 42.2473 13.6578 42.2473C15.1629 42.2473 16.7266 41.7068 17.5704 41.213L21.1426 42.217C23.7379 42.7004 25.7617 45.0487 25.7458 47.7308V53.2229C25.7458 53.652 26.0936 53.9999 26.5228 53.9999C26.952 53.9999 27.2998 53.652 27.2998 53.2229V47.7308C27.2998 44.338 24.8771 41.3915 21.5347 40.7128ZM20.9951 28.4911H21.8707C22.1392 28.4911 22.3576 28.709 22.3576 28.9767V30.9469C22.3576 31.2147 22.1392 31.4325 21.8707 31.4325H20.9951V28.4911ZM6.30476 31.4324H5.42909C5.16065 31.4324 4.94225 31.2146 4.94225 30.9468V28.9766C4.94225 28.7089 5.16065 28.491 5.42909 28.491H6.30476V31.4324ZM19.2633 21.2641C19.3778 21.6024 19.4409 21.9644 19.4409 22.3409V26.8946C19.0541 26.831 18.5967 26.6907 18.1414 26.4C17.6481 26.0852 17.3163 25.6934 17.1008 25.3613C18.1729 24.2093 18.911 22.8037 19.2633 21.2641ZM7.85883 22.3409C7.85883 20.4817 9.37322 18.9692 11.2347 18.9692H16.065C16.7578 18.9692 17.4025 19.179 17.9389 19.538C17.8907 20.4984 17.6542 21.7901 16.8917 23.0672C15.8128 24.874 14.5077 26.0648 11.959 26.8386C10.3611 27.3238 8.92109 27.2687 7.85893 27.083L7.85883 22.3409ZM9.67191 36.2861L9.02034 35.6352C8.27138 34.8871 7.85893 33.8924 7.85893 32.8344V28.6577C9.07629 28.8382 10.6635 28.8561 12.4106 28.3255C13.9279 27.8649 15.1058 27.1251 15.9521 26.4367C16.2688 26.8727 16.7063 27.3277 17.3055 27.7102C18.068 28.1969 18.834 28.3931 19.441 28.4625V32.8344C19.441 33.8924 19.0285 34.8871 18.2795 35.6353L17.6281 36.286C17.0657 36.8477 16.3179 37.1571 15.5228 37.1571H11.7773C10.9818 37.1571 10.2341 36.8478 9.67191 36.2861ZM13.9084 40.6882C12.8972 40.7288 12.0257 40.5185 11.35 40.2587C11.698 39.8279 11.9072 39.2877 11.9229 38.7112H15.3768C15.392 39.2899 15.6021 39.8319 15.9517 40.2635C15.3832 40.4829 14.6959 40.6566 13.9084 40.6882ZM31.1197 50.0072C30.6905 50.0072 30.3427 50.3551 30.3427 50.7842V53.2228C30.3427 53.6519 30.6905 53.9998 31.1197 53.9998C31.549 53.9998 31.8968 53.6519 31.8968 53.2228V50.7842C31.8968 50.3551 31.549 50.0072 31.1197 50.0072ZM47.7188 40.8179C48.8596 39.8627 49.5528 38.4362 49.5528 36.8705V27.5721C49.5528 24.858 48.4956 22.3066 46.5759 20.3881C44.6575 18.4708 42.108 17.4151 39.3959 17.4151H39.3902C33.7925 17.4181 29.2386 21.9746 29.2386 27.5722V36.876C29.2386 38.418 29.9434 39.8536 31.0788 40.8152C29.8255 41.1494 28.6937 41.8077 27.7842 42.7383C27.4841 43.0452 27.4897 43.5372 27.7967 43.8371C28.1035 44.1369 28.5954 44.1317 28.8954 43.8246C30.2822 42.2291 33.5906 41.8579 35.4746 41.2116C36.2884 41.6668 37.6664 42.2473 39.4035 42.2473C40.9075 42.2473 42.4729 41.7066 43.3162 41.213C47.8832 42.4153 51.224 43.0077 51.4915 47.7307V53.2228C51.4915 53.6519 51.8393 53.9998 52.2686 53.9998C52.6978 53.9998 53.0456 53.6519 53.0456 53.2228V47.7307C53.0456 44.4884 50.8322 41.6552 47.7188 40.8179ZM47.9987 31.5941C47.9987 31.8619 47.7827 32.0798 47.5171 32.0798H46.6482V29.1378H47.5171C47.7827 29.1378 47.9987 29.3558 47.9987 29.6236V31.5941ZM30.7927 27.5722C30.7927 22.8311 34.6498 18.9718 39.391 18.9692H39.3959C41.6928 18.9692 43.8525 19.8634 45.4773 21.4873C47.1032 23.1125 47.9987 25.2733 47.9987 27.5722V27.6438C47.844 27.606 47.6833 27.5837 47.5171 27.5837H46.6383C46.6124 27.4149 46.5321 27.2578 46.4066 27.1384C46.2524 26.9917 46.0455 26.9147 45.8321 26.9254C45.426 26.9459 44.6266 26.9037 43.8332 26.3914C43.0916 25.9127 42.7186 25.2529 42.5623 24.9023C42.4582 24.6688 42.2458 24.5014 41.9946 24.4547C41.7432 24.408 41.4849 24.488 41.3039 24.6685C40.6044 25.3662 39.4154 26.3071 37.723 26.827C35.8365 27.4065 34.1721 27.2123 33.1078 26.9474C32.8758 26.8897 32.63 26.9419 32.4416 27.0892C32.2846 27.212 32.1829 27.3895 32.1532 27.5836H31.2742C31.108 27.5836 30.9473 27.6059 30.7927 27.6437V27.5722ZM45.0941 28.4489V32.8088C45.0941 33.8652 44.6875 34.858 43.9491 35.6042L43.3067 36.2534C42.7548 36.8112 42.0215 37.1184 41.242 37.1184H37.5492C36.7698 37.1184 36.0364 36.8112 35.4845 36.2534L34.8421 35.6042C34.1038 34.858 33.6971 33.8653 33.6971 32.8088V28.6466C34.8975 28.825 36.4599 28.8409 38.1792 28.3127C39.6696 27.8549 40.8279 27.1213 41.6623 26.437C41.9743 26.8688 42.4036 27.3184 42.9901 27.6971C43.7407 28.1817 44.4949 28.3785 45.0941 28.4489ZM30.7927 29.6236C30.7927 29.3558 31.0087 29.1378 31.2742 29.1378H32.1431V32.0798H31.2742C31.0087 32.0798 30.7927 31.8619 30.7927 31.5941V29.6236ZM36.1176 38.6426C36.1176 39.0979 35.8112 39.5023 35.3726 39.6258L33.1481 40.2518C31.7513 39.737 30.7927 38.379 30.7927 36.8759V33.5737C30.9473 33.6116 31.108 33.6338 31.2742 33.6338H32.2039C32.375 34.7892 32.9045 35.8554 33.7375 36.6972L34.3799 37.3464C34.8765 37.8484 35.4701 38.2168 36.1175 38.4364L36.1176 38.6426ZM39.6542 40.6882C38.643 40.7288 37.7715 40.5185 37.0958 40.2587C37.4515 39.8183 37.6634 39.2636 37.6703 38.6724H41.1208C41.1273 39.2658 41.34 39.8222 41.6974 40.2634C41.129 40.4829 40.4417 40.6566 39.6542 40.6882ZM45.6345 40.2503C45.566 40.2298 43.4973 39.652 43.3878 39.6175C42.9659 39.4843 42.6737 39.0893 42.6737 38.6447V38.4365C43.3213 38.2169 43.9147 37.8486 44.4114 37.3465C45.4638 36.2829 46.3948 35.171 46.5874 33.6339H47.517C47.6832 33.6339 47.8439 33.6117 47.9986 33.5738V36.8706C47.9987 38.3973 47.0555 39.7345 45.6345 40.2503Z" fill="#3035C4"/>
<path d="M6.82278 5.23204H12.2404C12.6696 5.23204 13.0174 4.88413 13.0174 4.455C13.0174 4.02587 12.6696 3.67797 12.2404 3.67797H6.82278C6.39355 3.67797 6.04575 4.02587 6.04575 4.455C6.04575 4.88413 6.39365 5.23204 6.82278 5.23204ZM3.88517 11.9145C4.31441 11.9145 4.66221 11.5666 4.66221 11.1375C4.66221 10.7084 4.31441 10.3605 3.88517 10.3605C2.59986 10.3605 1.55407 9.31478 1.55407 8.02936V3.88517C1.55407 2.59975 2.59986 1.55407 3.88517 1.55407H15.7997C17.085 1.55407 18.1308 2.59975 18.1308 3.88517V8.02936C18.1308 9.31478 17.085 10.3605 15.7997 10.3605H15.3716C14.4177 10.3605 13.6415 11.1365 13.6413 12.0904L13.6412 12.4442L12.2457 10.9216C11.9188 10.5651 11.4538 10.3605 10.9701 10.3605H7.25233C6.82309 10.3605 6.47529 10.7084 6.47529 11.1375C6.47529 11.5666 6.82309 11.9145 7.25233 11.9145H10.9702C11.0195 11.9145 11.0669 11.9354 11.1001 11.9716L13.1255 14.1813C13.4621 14.549 13.98 14.6639 14.4357 14.4866C14.897 14.3072 15.1951 13.8713 15.1951 13.3765L15.1954 12.0907C15.1954 11.9935 15.2745 11.9145 15.3716 11.9145H15.7997C17.942 11.9145 19.6849 10.1717 19.6849 8.02936V3.88517C19.6849 1.74284 17.942 0 15.7997 0H3.88517C1.74284 0 0 1.74284 0 3.88517V8.02936C0 10.1717 1.74284 11.9145 3.88517 11.9145ZM6.82278 8.34017H12.2404C12.6696 8.34017 13.0174 7.99227 13.0174 7.56314C13.0174 7.13401 12.6696 6.78611 12.2404 6.78611H6.82278C6.39355 6.78611 6.04575 7.13401 6.04575 7.56314C6.04575 7.99227 6.39365 8.34017 6.82278 8.34017ZM49.1604 0H37.2459C35.1035 0 33.3607 1.74284 33.3607 3.88517V8.02936C33.3607 10.1717 35.1035 11.9145 37.2459 11.9145C37.4066 11.9145 37.8529 11.811 37.8502 12.0908L37.8505 13.3764C37.8505 13.8714 38.1486 14.3073 38.6099 14.4867C39.0649 14.6637 39.5835 14.549 39.9202 14.1813L41.9454 11.9717C41.9786 11.9354 42.0261 11.9145 42.0754 11.9145H49.1604C51.3027 11.9145 53.0456 10.1717 53.0456 8.02936V3.88517C53.0456 1.74284 51.3027 0 49.1604 0ZM51.4915 8.02936C51.4915 9.31478 50.4457 10.3605 49.1604 10.3605H42.0754C41.5917 10.3605 41.1268 10.565 40.7997 10.9217L39.4043 12.4442L39.4042 12.0904C39.404 11.1365 38.6278 10.3605 37.6739 10.3605H37.2459C35.9606 10.3605 34.9148 9.31478 34.9148 8.02936V3.88517C34.9148 2.59975 35.9606 1.55407 37.2459 1.55407H49.1604C50.4457 1.55407 51.4915 2.59975 51.4915 3.88517V8.02936ZM46.2228 3.67797H40.8052C40.376 3.67797 40.0282 4.02587 40.0282 4.455C40.0282 4.88413 40.376 5.23204 40.8052 5.23204H46.2228C46.652 5.23204 46.9998 4.88413 46.9998 4.455C46.9998 4.02587 46.6519 3.67797 46.2228 3.67797ZM46.2228 6.78611H40.8052C40.376 6.78611 40.0282 7.13401 40.0282 7.56314C40.0282 7.99227 40.376 8.34017 40.8052 8.34017H46.2228C46.652 8.34017 46.9998 7.99227 46.9998 7.56314C46.9998 7.13401 46.6519 6.78611 46.2228 6.78611Z" fill="#E6514A"/>
</svg>
