<svg width="24" height="24" viewBox="0 0 24 24" fill="none" xmlns="http://www.w3.org/2000/svg">
<path d="M12 0C5.37273 0 0 5.37273 0 12C0 18.6273 5.37273 24 12 24C18.6273 24 24 18.6273 24 12C24 5.37273 18.6273 0 12 0ZM18.7336 8.23636C17.4109 9.56182 16.5191 10.3336 14.0345 13.3309C12.6 15.06 11.2445 16.9173 11.2336 16.9309L10.6391 17.6727C10.5136 17.8391 10.2709 17.8582 10.1182 17.7164L5.34273 13.2791C4.85727 12.8291 4.83 12.0682 5.28 11.5827C5.73 11.0973 6.49091 11.07 6.97636 11.52L9.83727 14.1791C9.98727 14.3182 10.2218 14.3018 10.3527 14.1436C10.7945 13.5955 11.4 12.93 12.0545 12.2727C14.5145 9.79364 16.0255 8.46273 16.8327 7.87364C17.8145 7.15909 18.9409 6.54818 19.2136 6.88636C19.6364 7.41545 19.3773 7.59 18.7336 8.23636Z" fill="#E6514A"/>
</svg>
